# xmcd
#
# Track frame offsets: 
#        150
#        13638
#        30642
#        43770
#        61799
#        77719
#        98463
#        117264
#        134850
#        151987
#        170958
#        183281
#        195329
#        210493
#        229212
#        248141
#        265117
#        282206
#        300398
#
# Disc length: 4205 seconds
#
# Revision: 0
# Processed by: cddbd v1.5.2PL0 Copyright (c) Steve Scherf et al.
# Submitted via: ExactAudioCopy v0.95b4
#
DISCID=fb106b13
DTITLE=Various Artist - Siempre Te Amare Vol.13
DYEAR=2000
DGENRE=Ballad
TTITLE0=Julio Iglesias - No llores mi amor
TTITLE1=Leo Dan - Siempre estoy pensando en ella
TTITLE2=Leonardo Fabio - Fuiste mía un verano
TTITLE3=Manolo Otero - Bella mujer
TTITLE4=Manolo Galván - Deja de llorar
TTITLE5=Nino Bravo - Un beso y una flor
TTITLE6=Miguel Gallardo - Hoy tengo ganas de ti
TTITLE7=Juan Bau - Dama del amancer
TTITLE8=Dyango - El primer beso
TTITLE9=Danny Daniel - Viento del otoño
TTITLE10=Raphael - Digan lo que digan
TTITLE11=Adamo - Porque yo quiero
TTITLE12=Nicola Di Bari - El corazón es un gitano
TTITLE13=José Feliciano - Porque te tengo que olvidar
TTITLE14=Basilio - Cisne cuello negro
TTITLE15=Los Angeles Negros - A ti
TTITLE16=Juan Camacho - A ti mujer
TTITLE17=Lorenzo Santamaría - Para que no me olvides
TTITLE18=Alberto Cortez - Poema
EXTD=
EXTT0=
EXTT1=
EXTT2=
EXTT3=
EXTT4=
EXTT5=
EXTT6=
EXTT7=
EXTT8=
EXTT9=
EXTT10=
EXTT11=
EXTT12=
EXTT13=
EXTT14=
EXTT15=
EXTT16=
EXTT17=
EXTT18=
PLAYORDER=
